<svg xmlns="http://www.w3.org/2000/svg" version="1.1" class viewBox="-5.0 -10.0 110.0 135.0" >
 <g>
  <path d="m36.301 66.867 7.4531 3.7305 2.5156-5.0312h18.098l2.5195 5.0312 7.4531-3.7305-4.8203-9.6328h-28.398z"/>
  <path d="m68.176 39.957c0-7.0859-5.7695-12.855-12.859-12.855-7.0859 0-12.859 5.7656-12.859 12.855 0 7.0859 5.7695 12.859 12.859 12.859 7.0859 0 12.859-5.7656 12.859-12.859zm-17.383 0c0-2.4961 2.0273-4.5195 4.5234-4.5195s4.5234 2.0273 4.5234 4.5195c0 2.4922-2.0273 4.5234-4.5234 4.5234s-4.5234-2.0273-4.5234-4.5234z"/>
  <path d="m19.105 25.004h8.332v-8.3359h55.895v66.664h-55.895v-8.3359h-8.332v16.672h72.562v-83.336h-72.562z"/>
  <path d="m27.438 31.203h-14.938v8.3359h6.6055v20.922h-6.6055v8.3359h14.938z"/>
 </g>
<text x="0.0" y="117.5" font-size="5.0" font-weight="bold" font-family="Arbeit Regular, Helvetica, Arial-Unicode, Arial, Sans-serif" fill="#000000">Created by Rini Bahtiar</text><text x="0.0" y="122.5" font-size="5.0" font-weight="bold" font-family="Arbeit Regular, Helvetica, Arial-Unicode, Arial, Sans-serif" fill="#000000">from Noun Project</text></svg>